<?xml version="1.0" encoding="iso-8859-1"?>
<!-- Generator: Adobe Illustrator 25.4.0, SVG Export Plug-In . SVG Version: 6.00 Build 0)  -->
<svg version="1.1" id="Livello_1" xmlns="http://www.w3.org/2000/svg" xmlns:xlink="http://www.w3.org/1999/xlink" x="0px" y="0px"
	 viewBox="0 0 234.109 222.415" style="enable-background:new 0 0 234.109 222.415;" xml:space="preserve">
<style type="text/css">
	.st0{fill:#f59f0f;}
	.st1{fill:#009c83;}
</style>
<g>
	<g>
		<path class="st1" d="M210.198,117.905c-0.759-3.969-2.769-6.798-6.971-7.704c-1.898-0.406-3.753-1.009-5.625-1.518
			c-4.176-1.139-7.187-3.511-9.007-7.566c-2.053-4.607-4.348-9.111-6.669-13.58c-3.106-5.97-8.084-9.076-14.822-9.257
			c-2.03-0.055-4.06-0.033-6.09-0.022c-0.869,0.005-1.571,0.707-1.571,1.576v3.333c0,0.877,0.716,1.586,1.593,1.576
			c1.016-0.012,2.032-0.017,3.04,0.034c5.901,0.276,10.292,3.011,12.976,8.3c2.238,4.408,4.417,8.843,6.727,13.497
			c0.509,1.025-0.205,2.277-1.349,2.283c-0.007,0-0.014,0-0.021,0c-7.127,0.016-14.261,0.017-21.388,0.003
			c-0.872-0.002-1.578,0.704-1.578,1.575v1.07c-0.371,8.144-5.176,12.63-13.545,12.63h-0.682
			c-10.543,0.009-21.085,0.009-31.628,0.009c-6.1,0-12.191,0-18.29-0.009c-0.552,0-0.906,0.285-1.078,0.449
			c-0.164,0.164-0.44,0.526-0.44,1.07v0.285c0,1.884-0.629,3.63-1.694,5.035c-0.529,0.698-0.36,1.723,0.35,2.236
			c0.159,0.115,0.326,0.222,0.499,0.32c6.065,3.391,10.085,9.576,10.681,17.263c0.147,1.915,0.802,2.381,2.631,2.373
			c13.027-0.069,26.055-0.069,39.082-0.009c1.743,0.017,2.295-0.544,2.381-2.269c0.492-9.973,8.075-18.419,17.738-19.895
			c10.379-1.587,20.197,4.089,23.605,13.856c0.753,2.164,1.091,4.465,1.544,6.817c0.143,0.74,0.785,1.275,1.539,1.283
			c3.458,0.037,7.077,0.188,10.669-0.111c1.734-0.138,3.675-1.113,4.969-2.303c0.802-0.742,1.389-1.717,1.941-2.735
			c0.794-1.484,1.216-3.132,1.216-4.823v-21.019c0-0.096-0.009-0.192-0.026-0.286C210.673,120.416,210.447,119.161,210.198,117.905z
			"/>
		<path class="st1" d="M185.387,152.196c-0.063,8.993-7.517,16.406-16.437,16.346c-8.941-0.06-16.388-7.519-16.398-16.427
			c-0.011-8.983,7.601-16.524,16.571-16.416C178.146,135.808,185.451,143.216,185.387,152.196z M161.907,152.121
			c0.006,3.942,3.071,7.035,7.013,7.077c3.976,0.042,7.239-3.166,7.227-7.106c-0.012-3.846-3.207-7.059-7.075-7.116
			C165.119,144.916,161.9,148.126,161.907,152.121z"/>
		<path class="st1" d="M82.3,135.699c8.953-0.027,16.379,7.343,16.457,16.333c0.077,8.957-7.539,16.585-16.485,16.509
			c-8.965-0.076-16.38-7.527-16.368-16.446C65.916,143.138,73.327,135.727,82.3,135.699z M82.128,159.193
			c3.956,0.107,7.141-2.874,7.308-6.839c0.166-3.955-2.997-7.29-6.993-7.375c-3.872-0.082-7.12,3.051-7.226,6.97
			C75.111,155.858,78.192,159.087,82.128,159.193z"/>
		<path class="st0" d="M155.992,63.208v48.141c-0.285,6.333-3.52,9.335-10.094,9.335h-0.543c-10.586,0.009-21.18,0.009-31.766,0.009
			c-6.1,0-12.191,0-18.29-0.009l-1.475,0.224c-0.293,0.095-0.569,0.207-0.837,0.345c0,0.009-0.009,0-0.009,0
			c-0.44,0.242-0.845,0.544-1.191,0.889c-0.345,0.345-0.647,0.751-0.889,1.191c0,0,0.009,0.009,0,0.009
			c-0.138,0.267-0.25,0.544-0.345,0.837c-0.147,0.466-0.224,0.958-0.224,1.475v0.285c0,2.813-2.312,4.961-5.047,4.961
			c-0.216,0-0.431-0.017-0.647-0.043c-0.406-0.052-0.811-0.095-1.225-0.121c-0.466-0.034-0.932-0.052-1.398-0.052
			c-1.941,0-3.856,0.293-5.694,0.845c-0.613,0.19-1.208,0.397-1.803,0.638c-0.293,0.112-0.587,0.242-0.88,0.371
			c-0.578,0.268-1.147,0.561-1.7,0.871c-2.217,1.26-4.227,2.907-5.893,4.849c-0.414,0.483-0.811,0.984-1.182,1.501
			c-0.932,1.294-1.725,2.692-2.338,4.167c-0.25,0.595-0.466,1.199-0.656,1.812c-0.095,0.302-0.181,0.613-0.259,0.923
			c-0.164,0.63-0.293,1.26-0.388,1.907c-0.052,0.319-0.086,0.638-0.121,0.966c-0.078,0.811-0.138,1.441-0.224,1.924
			c-0.086,0.492-0.207,0.837-0.388,1.087c-0.052,0.06-0.104,0.121-0.155,0.164c-0.121,0.095-0.25,0.173-0.414,0.233
			c-0.397,0.147-0.966,0.181-1.786,0.181c-0.285,0-0.613,0-0.966-0.009c-1.751-0.035-3.563-0.009-5.254-0.406
			c-4.348-1.018-7.031-4.814-7.074-9.844c-0.026-2.2-0.026-4.409-0.026-6.609v-2.235c0-3.27,0.009-6.522,0.026-9.792
			c0-2.545,0.915-3.546,3.373-3.796c0.302-0.034,0.604-0.043,0.906-0.043c0,0,15.176,0.009,19.515,0.009
			c4.348,0,8.688-0.009,13.036-0.026c4.555-0.026,7.877-3.071,8.429-7.506c0.733-5.832-1.441-10.025-5.97-11.293
			c-1.208-0.336-2.519-0.406-3.787-0.406c-10.103-0.026-20.205-0.009-30.317-0.026c-0.846,0-1.717-0.017-2.536-0.181
			c-0.345-0.06-0.656-0.173-0.915-0.311c-0.725-0.388-1.156-1.07-1.182-2.071c-0.009-0.423-0.017-0.845-0.009-1.277
			c0-3.227,0.483-3.727,3.667-3.727H69.58c6.833,0,13.666,0,20.507-0.009h6.082c4.762-0.009,8.144-2.243,9.016-6.281
			c0.017-0.086,0.034-0.164,0.052-0.25c0.371-1.95,0.362-4.072,0.026-6.048c-0.604-3.511-3.391-6.238-6.936-6.591
			c-0.742-0.078-1.484-0.095-2.217-0.095c-0.5,0-0.992,0.009-1.484,0.009H48.779c-0.966-0.009-1.682-0.121-2.209-0.388
			c-0.854-0.466-1.165-1.38-1.191-2.994c-0.026-2.191-0.026-4.383,0-6.574c0.052-5.245,2.674-8.602,7.808-9.74
			c0.811-0.181,1.631-0.328,2.467-0.44c1.216-0.173,2.45-0.259,3.675-0.267c15.495-0.026,30.99-0.035,46.476-0.035
			c13.364,0,26.728,0.009,40.092,0.017c6.436,0,9.68,2.856,10.085,8.912C155.992,62.94,155.992,63.078,155.992,63.208z"/>
	</g>
	<path class="st1" d="M95.643,89.345H39.782c-3.009,0-5.449-2.44-5.449-5.449v0c0-3.009,2.44-5.449,5.449-5.449h55.862
		c3.009,0,5.449,2.44,5.449,5.449v0C101.092,86.906,98.653,89.345,95.643,89.345z"/>
	<path class="st1" d="M80.103,116.257H24.241c-3.009,0-5.449-2.439-5.449-5.449v0c0-3.009,2.44-5.449,5.449-5.449h55.862
		c3.009,0,5.449,2.44,5.449,5.449v0C85.552,113.817,83.112,116.257,80.103,116.257z"/>
</g>
</svg>
