<?xml version="1.0" encoding="iso-8859-1"?>
<!-- Generator: Adobe Illustrator 25.4.0, SVG Export Plug-In . SVG Version: 6.00 Build 0)  -->
<svg version="1.1" id="Livello_1" xmlns="http://www.w3.org/2000/svg" xmlns:xlink="http://www.w3.org/1999/xlink" x="0px" y="0px"
	 viewBox="0 0 407.224 378.586" style="enable-background:new 0 0 407.224 378.586;" xml:space="preserve">
<style type="text/css">
	.st0{fill:#f59f0f;}
	.st1{fill:#009c83;}
</style>
<g>
	<path class="st0" d="M63.048,226.412c3.829,1.734,6.779,4.194,8.849,7.381C73.964,236.98,75,240.754,75,245.116
		c0,4.306-1.036,8.066-3.104,11.281c-2.069,3.216-5.019,5.676-8.849,7.381c-3.831,1.706-8.345,2.558-13.545,2.558H37.677v16.187
		H24.089v-58.71h25.413C54.703,223.812,59.217,224.68,63.048,226.412z M58.057,252.622c2.124-1.761,3.187-4.263,3.187-7.506
		c0-3.299-1.063-5.829-3.187-7.59c-2.126-1.761-5.229-2.642-9.31-2.642H37.677v20.381h11.071
		C52.829,255.264,55.932,254.383,58.057,252.622z"/>
	<path class="st0" d="M122.052,282.522l-11.323-16.355h-0.671H98.232v16.355H84.645v-58.71h25.413c5.2,0,9.714,0.868,13.545,2.6
		c3.829,1.734,6.779,4.194,8.849,7.381c2.068,3.187,3.104,6.962,3.104,11.323s-1.049,8.122-3.146,11.281
		c-2.097,3.16-5.074,5.577-8.932,7.255l13.168,18.871H122.052z M118.613,237.525c-2.126-1.761-5.229-2.642-9.31-2.642H98.232v20.465
		h11.071c4.081,0,7.184-0.894,9.31-2.684c2.124-1.789,3.187-4.305,3.187-7.548C121.8,241.817,120.737,239.287,118.613,237.525z"/>
	<path class="st0" d="M191.748,271.619v10.903h-45.458v-58.71h44.368v10.903h-30.865v12.749h27.258v10.568h-27.258v13.587H191.748z"
		/>
	<path class="st1" d="M208.395,281.642c-4.333-1.259-7.814-2.893-10.442-4.906l4.613-10.233c2.516,1.845,5.506,3.328,8.973,4.445
		c3.467,1.119,6.934,1.677,10.401,1.677c3.858,0,6.709-0.573,8.554-1.719c1.845-1.145,2.767-2.669,2.767-4.571
		c0-1.397-0.545-2.558-1.636-3.481c-1.089-0.922-2.488-1.663-4.192-2.223c-1.706-0.558-4.014-1.174-6.92-1.845
		c-4.474-1.061-8.134-2.124-10.986-3.187c-2.853-1.061-5.299-2.768-7.34-5.116c-2.042-2.349-3.061-5.479-3.061-9.394
		c0-3.41,0.923-6.5,2.767-9.268c1.845-2.768,4.626-4.961,8.345-6.584c3.719-1.621,8.261-2.432,13.63-2.432
		c3.745,0,7.407,0.448,10.988,1.342c3.577,0.895,6.709,2.181,9.393,3.858l-4.194,10.316c-5.423-3.075-10.847-4.613-16.27-4.613
		c-3.803,0-6.613,0.616-8.429,1.845c-1.818,1.231-2.726,2.851-2.726,4.865s1.049,3.509,3.146,4.487
		c2.097,0.979,5.297,1.943,9.602,2.893c4.474,1.063,8.136,2.126,10.988,3.187c2.851,1.063,5.297,2.74,7.339,5.032
		c2.04,2.293,3.062,5.397,3.062,9.31c0,3.355-0.938,6.416-2.81,9.184c-1.874,2.768-4.684,4.963-8.429,6.584
		c-3.747,1.621-8.304,2.432-13.671,2.432C217.215,283.529,212.728,282.9,208.395,281.642z"/>
	<path class="st1" d="M267.399,234.883h-18.788v-11.071h51.162v11.071h-18.788v47.639h-13.587V234.883z"/>
	<path class="st1" d="M318.183,279.587c-4.893-2.628-8.723-6.248-11.49-10.862c-2.768-4.613-4.152-9.798-4.152-15.558
		c0-5.758,1.384-10.945,4.152-15.558c2.767-4.613,6.597-8.233,11.49-10.861c4.893-2.628,10.386-3.942,16.481-3.942
		c6.094,0,11.574,1.314,16.439,3.942c4.865,2.629,8.694,6.248,11.491,10.861c2.795,4.613,4.193,9.8,4.193,15.558
		c0,5.76-1.398,10.945-4.193,15.558c-2.797,4.613-6.626,8.234-11.491,10.862c-4.865,2.629-10.345,3.942-16.439,3.942
		C328.568,283.529,323.075,282.215,318.183,279.587z M344.058,269.564c2.795-1.594,4.99-3.816,6.583-6.668
		c1.594-2.852,2.39-6.094,2.39-9.729c0-3.634-0.796-6.878-2.39-9.729c-1.594-2.852-3.789-5.075-6.583-6.668
		c-2.797-1.594-5.928-2.39-9.394-2.39c-3.468,0-6.599,0.796-9.394,2.39c-2.797,1.593-4.991,3.816-6.584,6.668
		c-1.593,2.851-2.39,6.095-2.39,9.729c0,3.635,0.797,6.878,2.39,9.729c1.594,2.852,3.788,5.074,6.584,6.668
		c2.795,1.593,5.926,2.39,9.394,2.39C338.13,271.954,341.261,271.158,344.058,269.564z"/>
</g>
<g>
	<g>
		<path class="st1" d="M297.041,147.984c-0.809-4.23-2.951-7.245-7.429-8.211c-2.023-0.432-4-1.076-5.995-1.618
			c-4.45-1.214-7.659-3.742-9.599-8.064c-2.188-4.91-4.634-9.709-7.107-14.472c-3.31-6.363-8.615-9.673-15.796-9.866
			c-2.163-0.058-4.327-0.036-6.49-0.024c-0.926,0.005-1.674,0.754-1.674,1.68v3.552c0,0.935,0.763,1.69,1.698,1.679
			c1.083-0.013,2.165-0.018,3.24,0.037c6.289,0.294,10.969,3.209,13.829,8.845c2.385,4.698,4.707,9.425,7.17,14.384
			c0.542,1.092-0.218,2.427-1.438,2.433c-0.007,0-0.015,0-0.022,0c-7.595,0.017-15.198,0.018-22.794,0.004
			c-0.929-0.002-1.682,0.75-1.682,1.679v1.14c-0.395,8.68-5.517,13.461-14.435,13.461h-0.726
			c-11.236,0.009-22.471,0.009-33.707,0.009c-6.501,0-12.992,0-19.492-0.009c-0.588,0-0.965,0.303-1.149,0.478
			c-0.175,0.175-0.469,0.561-0.469,1.14v0.303c0,2.008-0.671,3.869-1.805,5.366c-0.564,0.744-0.384,1.837,0.373,2.383
			c0.17,0.122,0.347,0.237,0.532,0.341c6.464,3.613,10.748,10.206,11.383,18.398c0.156,2.041,0.855,2.538,2.804,2.528
			c13.884-0.074,27.767-0.074,41.651-0.009c1.857,0.018,2.446-0.579,2.538-2.418c0.524-10.629,8.606-19.63,18.904-21.203
			c11.061-1.692,21.524,4.358,25.156,14.766c0.803,2.306,1.163,4.758,1.646,7.265c0.152,0.789,0.837,1.358,1.64,1.367
			c3.685,0.04,7.542,0.201,11.37-0.118c1.848-0.147,3.917-1.186,5.296-2.455c0.855-0.791,1.48-1.83,2.069-2.915
			c0.846-1.581,1.296-3.338,1.296-5.14v-22.401c0-0.102-0.009-0.204-0.028-0.305C297.547,150.66,297.307,149.322,297.041,147.984z"
			/>
		<path class="st1" d="M270.6,184.528c-0.068,9.584-8.011,17.484-17.517,17.42c-9.529-0.064-17.465-8.014-17.476-17.507
			c-0.011-9.574,8.1-17.61,17.66-17.495C262.883,167.063,270.667,174.959,270.6,184.528z M245.575,184.448
			c0.007,4.201,3.273,7.497,7.474,7.542c4.238,0.045,7.715-3.374,7.703-7.573c-0.012-4.098-3.417-7.523-7.54-7.584
			C248.999,176.77,245.569,180.191,245.575,184.448z"/>
		<path class="st1" d="M160.736,166.948c9.542-0.029,17.456,7.825,17.539,17.407c0.082,9.546-8.035,17.675-17.568,17.595
			c-9.554-0.081-17.457-8.021-17.444-17.527C143.275,174.876,151.174,166.977,160.736,166.948z M160.553,191.986
			c4.216,0.114,7.61-3.063,7.788-7.289c0.177-4.214-3.194-7.769-7.453-7.86c-4.126-0.087-7.588,3.251-7.701,7.428
			C153.075,188.431,156.358,191.872,160.553,191.986z"/>
		<path class="st0" d="M239.272,89.69v51.305c-0.303,6.749-3.751,9.948-10.758,9.948h-0.579
			c-11.282,0.009-22.573,0.009-33.854,0.009c-6.501,0-12.992,0-19.492-0.009l-1.572,0.239c-0.313,0.101-0.607,0.221-0.892,0.368
			c0,0.009-0.009,0-0.009,0c-0.469,0.257-0.901,0.579-1.269,0.947c-0.368,0.368-0.69,0.8-0.947,1.269c0,0,0.009,0.009,0,0.009
			c-0.147,0.285-0.267,0.579-0.368,0.892c-0.156,0.496-0.239,1.021-0.239,1.572v0.303c0,2.997-2.464,5.287-5.379,5.287
			c-0.23,0-0.46-0.018-0.69-0.046c-0.432-0.055-0.864-0.101-1.306-0.129c-0.496-0.037-0.993-0.055-1.49-0.055
			c-2.069,0-4.11,0.313-6.068,0.901c-0.653,0.202-1.287,0.423-1.922,0.68c-0.313,0.12-0.625,0.257-0.938,0.395
			c-0.616,0.285-1.223,0.598-1.811,0.929c-2.363,1.342-4.505,3.099-6.28,5.167c-0.441,0.515-0.864,1.048-1.26,1.6
			c-0.993,1.379-1.839,2.869-2.492,4.441c-0.267,0.634-0.497,1.278-0.699,1.931c-0.101,0.322-0.193,0.653-0.276,0.984
			c-0.175,0.671-0.313,1.342-0.414,2.032c-0.055,0.34-0.092,0.68-0.129,1.03c-0.083,0.864-0.147,1.536-0.239,2.05
			c-0.092,0.524-0.221,0.892-0.414,1.158c-0.055,0.064-0.11,0.129-0.165,0.175c-0.129,0.101-0.267,0.184-0.441,0.248
			c-0.423,0.156-1.03,0.193-1.903,0.193c-0.303,0-0.653,0-1.03-0.009c-1.866-0.037-3.797-0.009-5.599-0.432
			c-4.634-1.085-7.494-5.131-7.54-10.491c-0.028-2.345-0.028-4.698-0.028-7.043v-2.381c0-3.485,0.009-6.951,0.028-10.436
			c0-2.712,0.975-3.779,3.595-4.046c0.322-0.037,0.644-0.046,0.965-0.046c0,0,16.173,0.009,20.798,0.009
			c4.634,0,9.259-0.009,13.893-0.028c4.855-0.028,8.395-3.273,8.983-7.999c0.782-6.215-1.535-10.684-6.363-12.036
			c-1.287-0.359-2.685-0.432-4.036-0.432c-10.767-0.028-21.534-0.009-32.309-0.028c-0.901,0-1.83-0.018-2.703-0.193
			c-0.368-0.064-0.699-0.184-0.975-0.331c-0.772-0.414-1.232-1.14-1.26-2.207c-0.009-0.451-0.018-0.901-0.009-1.361
			c0-3.439,0.515-3.972,3.908-3.972h21.883c7.282,0,14.564,0,21.855-0.009h6.482c5.075-0.009,8.68-2.391,9.608-6.694
			c0.018-0.092,0.037-0.175,0.055-0.267c0.395-2.078,0.386-4.34,0.028-6.445c-0.644-3.742-3.613-6.648-7.392-7.025
			c-0.791-0.083-1.581-0.101-2.363-0.101c-0.533,0-1.057,0.009-1.581,0.009h-48.86c-1.03-0.009-1.793-0.129-2.354-0.414
			c-0.91-0.497-1.241-1.471-1.269-3.191c-0.028-2.335-0.028-4.671,0-7.006c0.055-5.59,2.85-9.167,8.321-10.381
			c0.864-0.193,1.738-0.349,2.63-0.469c1.296-0.184,2.611-0.276,3.917-0.285c16.513-0.028,33.027-0.037,49.531-0.037
			c14.242,0,28.485,0.009,42.727,0.018c6.859,0,10.316,3.043,10.748,9.498C239.272,89.405,239.272,89.553,239.272,89.69z"/>
	</g>
	<path class="st1" d="M175.315,117.546h-60.25c-3.009,0-5.449-2.44-5.449-5.449v-0.716c0-3.009,2.439-5.449,5.449-5.449h60.25
		c3.009,0,5.449,2.44,5.449,5.449v0.716C180.763,115.107,178.324,117.546,175.315,117.546z"/>
	<path class="st1" d="M158.753,146.227h-60.25c-3.009,0-5.449-2.439-5.449-5.449v-0.716c0-3.009,2.439-5.449,5.449-5.449h60.25
		c3.009,0,5.449,2.439,5.449,5.449v0.716C164.201,143.788,161.762,146.227,158.753,146.227z"/>
</g>
</svg>
