<?xml version="1.0" encoding="iso-8859-1"?>
<!-- Generator: Adobe Illustrator 25.4.0, SVG Export Plug-In . SVG Version: 6.00 Build 0)  -->
<svg version="1.1" id="Livello_1" xmlns="http://www.w3.org/2000/svg" xmlns:xlink="http://www.w3.org/1999/xlink" x="0px" y="0px"
	 viewBox="0 0 958.576 222.415" style="enable-background:new 0 0 958.576 222.415;" xml:space="preserve">
<style type="text/css">
	.st0{fill:#f59f0f;}
	.st1{fill:#009c83;}
</style>
<g>
	<path class="st0" d="M333.53,56.816c7.351,3.329,13.014,8.051,16.987,14.169c3.97,6.118,5.958,13.364,5.958,21.736
		c0,8.267-1.988,15.485-5.958,21.656c-3.972,6.174-9.635,10.895-16.987,14.169c-7.354,3.275-16.02,4.91-26.002,4.91h-22.703v31.075
		h-26.083V51.825h48.786C317.51,51.825,326.176,53.491,333.53,56.816z M323.95,107.132c4.078-3.381,6.118-8.184,6.118-14.41
		c0-6.332-2.041-11.19-6.118-14.571c-4.081-3.381-10.038-5.072-17.872-5.072h-21.253v39.125h21.253
		C313.912,112.203,319.869,110.513,323.95,107.132z"/>
	<path class="st0" d="M446.801,164.531l-21.736-31.397h-1.288h-22.703v31.397h-26.083V51.825h48.786
		c9.983,0,18.649,1.666,26.002,4.991c7.351,3.329,13.014,8.051,16.987,14.169c3.97,6.118,5.958,13.364,5.958,21.736
		s-2.013,15.593-6.039,21.656c-4.025,6.066-9.741,10.707-17.147,13.927l25.278,36.227H446.801z M440.199,78.15
		c-4.081-3.381-10.038-5.072-17.872-5.072h-21.253v39.286h21.253c7.834,0,13.791-1.716,17.872-5.152
		c4.078-3.434,6.118-8.265,6.118-14.491C446.318,86.389,444.277,81.532,440.199,78.15z"/>
	<path class="st0" d="M580.596,143.601v20.931H493.33V51.825h85.173v20.931h-59.251v24.473h52.328v20.287h-52.328v26.084H580.596z"
		/>
	<path class="st1" d="M612.554,162.841c-8.319-2.416-15.001-5.555-20.045-9.419l8.856-19.644c4.83,3.543,10.57,6.388,17.226,8.534
		c6.656,2.149,13.311,3.22,19.967,3.22c7.406,0,12.88-1.099,16.422-3.301c3.542-2.198,5.313-5.124,5.313-8.775
		c0-2.682-1.047-4.91-3.14-6.682c-2.09-1.771-4.776-3.192-8.048-4.267c-3.275-1.071-7.706-2.254-13.285-3.542
		c-8.588-2.038-15.616-4.078-21.09-6.118c-5.477-2.038-10.173-5.314-14.09-9.821c-3.92-4.509-5.876-10.518-5.876-18.033
		c0-6.545,1.771-12.478,5.313-17.791c3.543-5.314,8.88-9.524,16.02-12.639c7.14-3.112,15.859-4.669,26.165-4.669
		c7.189,0,14.22,0.86,21.093,2.576c6.866,1.718,12.88,4.187,18.032,7.407l-8.051,19.804c-10.411-5.903-20.823-8.856-31.235-8.856
		c-7.301,0-12.696,1.183-16.182,3.543c-3.489,2.363-5.234,5.474-5.234,9.338s2.014,6.737,6.04,8.614
		c4.026,1.879,10.168,3.73,18.433,5.555c8.588,2.04,15.619,4.081,21.093,6.118c5.474,2.04,10.168,5.26,14.088,9.66
		c3.917,4.403,5.879,10.36,5.879,17.872c0,6.441-1.801,12.317-5.395,17.631c-3.598,5.314-8.993,9.527-16.182,12.639
		c-7.192,3.112-15.941,4.669-26.244,4.669C629.487,166.464,620.872,165.256,612.554,162.841z"/>
	<path class="st1" d="M725.823,73.079h-36.067V51.825h98.216v21.253h-36.067v91.453h-26.083V73.079z"/>
	<path class="st1" d="M823.314,158.896c-9.393-5.044-16.745-11.995-22.057-20.851c-5.314-8.855-7.971-18.81-7.971-29.867
		c0-11.054,2.656-21.011,7.971-29.868c5.313-8.855,12.665-15.804,22.057-20.85c9.393-5.044,19.938-7.568,31.639-7.568
		c11.699,0,22.219,2.523,31.557,7.568c9.338,5.046,16.69,11.995,22.059,20.85c5.365,8.856,8.05,18.813,8.05,29.868
		c0,11.057-2.684,21.011-8.05,29.867c-5.369,8.856-12.721,15.807-22.059,20.851c-9.338,5.046-19.859,7.568-31.557,7.568
		C843.252,166.464,832.707,163.942,823.314,158.896z M872.987,139.656c5.365-3.06,9.579-7.326,12.638-12.8
		c3.06-5.474,4.589-11.699,4.589-18.677c0-6.977-1.529-13.203-4.589-18.677c-3.06-5.475-7.273-9.742-12.638-12.8
		c-5.369-3.06-11.379-4.589-18.033-4.589c-6.657,0-12.668,1.529-18.033,4.589c-5.369,3.059-9.58,7.326-12.64,12.8
		c-3.058,5.474-4.589,11.7-4.589,18.677c0,6.978,1.531,13.203,4.589,18.677c3.06,5.475,7.271,9.741,12.64,12.8
		c5.365,3.059,11.376,4.589,18.033,4.589C861.607,144.244,867.618,142.714,872.987,139.656z"/>
</g>
<g>
	<g>
		<path class="st1" d="M226.865,113.926c-0.759-3.969-2.769-6.798-6.971-7.704c-1.898-0.406-3.753-1.009-5.625-1.518
			c-4.176-1.139-7.187-3.511-9.007-7.566c-2.053-4.607-4.348-9.111-6.669-13.58c-3.106-5.97-8.084-9.076-14.822-9.257
			c-2.03-0.055-4.06-0.033-6.09-0.022c-0.869,0.005-1.571,0.707-1.571,1.576v3.333c0,0.877,0.716,1.586,1.593,1.576
			c1.016-0.012,2.032-0.017,3.04,0.034c5.901,0.276,10.292,3.011,12.976,8.3c2.238,4.408,4.417,8.843,6.727,13.497
			c0.509,1.025-0.205,2.277-1.349,2.283c-0.007,0-0.014,0-0.021,0c-7.127,0.016-14.261,0.017-21.388,0.003
			c-0.872-0.002-1.578,0.704-1.578,1.575v1.07c-0.371,8.144-5.176,12.63-13.545,12.63h-0.682
			c-10.543,0.009-21.085,0.009-31.628,0.009c-6.1,0-12.191,0-18.29-0.009c-0.552,0-0.906,0.285-1.078,0.449
			c-0.164,0.164-0.44,0.526-0.44,1.07v0.285c0,1.884-0.629,3.63-1.694,5.035c-0.529,0.698-0.36,1.723,0.35,2.236
			c0.159,0.115,0.326,0.222,0.499,0.32c6.065,3.391,10.085,9.576,10.681,17.263c0.147,1.915,0.802,2.381,2.631,2.373
			c13.027-0.069,26.055-0.069,39.082-0.009c1.743,0.017,2.295-0.544,2.381-2.269c0.492-9.973,8.075-18.419,17.738-19.895
			c10.379-1.587,20.197,4.089,23.605,13.856c0.753,2.164,1.091,4.465,1.544,6.817c0.143,0.74,0.785,1.275,1.539,1.283
			c3.458,0.037,7.077,0.188,10.669-0.111c1.734-0.138,3.675-1.113,4.969-2.303c0.802-0.742,1.389-1.717,1.941-2.735
			c0.794-1.484,1.216-3.132,1.216-4.823v-21.019c0-0.096-0.009-0.192-0.026-0.286C227.34,116.437,227.114,115.181,226.865,113.926z"
			/>
		<path class="st1" d="M202.055,148.216c-0.063,8.993-7.517,16.406-16.437,16.346c-8.941-0.06-16.388-7.519-16.398-16.427
			c-0.011-8.983,7.601-16.524,16.571-16.416C194.814,131.828,202.118,139.237,202.055,148.216z M178.574,148.141
			c0.006,3.942,3.071,7.035,7.013,7.077c3.976,0.042,7.239-3.166,7.227-7.106c-0.012-3.846-3.207-7.059-7.075-7.116
			C181.786,140.936,178.567,144.147,178.574,148.141z"/>
		<path class="st1" d="M98.967,131.72c8.953-0.027,16.379,7.343,16.457,16.333c0.077,8.957-7.539,16.585-16.485,16.509
			c-8.965-0.076-16.38-7.527-16.368-16.446C82.583,139.159,89.995,131.747,98.967,131.72z M98.795,155.214
			c3.956,0.107,7.141-2.874,7.308-6.839c0.166-3.955-2.997-7.29-6.993-7.375c-3.872-0.082-7.12,3.051-7.226,6.97
			C91.779,151.878,94.859,155.107,98.795,155.214z"/>
		<path class="st0" d="M172.659,59.228v48.141c-0.285,6.333-3.52,9.335-10.094,9.335h-0.543c-10.586,0.009-21.18,0.009-31.766,0.009
			c-6.1,0-12.191,0-18.29-0.009l-1.475,0.224c-0.293,0.095-0.569,0.207-0.837,0.345c0,0.009-0.009,0-0.009,0
			c-0.44,0.242-0.845,0.544-1.191,0.889c-0.345,0.345-0.647,0.751-0.889,1.191c0,0,0.009,0.009,0,0.009
			c-0.138,0.267-0.25,0.544-0.345,0.837c-0.147,0.466-0.224,0.958-0.224,1.475v0.285c0,2.813-2.312,4.961-5.047,4.961
			c-0.216,0-0.431-0.017-0.647-0.043c-0.406-0.052-0.811-0.095-1.225-0.121c-0.466-0.034-0.932-0.052-1.398-0.052
			c-1.941,0-3.856,0.293-5.694,0.845c-0.613,0.19-1.208,0.397-1.803,0.638c-0.293,0.112-0.587,0.242-0.88,0.371
			c-0.578,0.268-1.147,0.561-1.7,0.871c-2.217,1.26-4.227,2.907-5.893,4.849c-0.414,0.483-0.811,0.984-1.182,1.501
			c-0.932,1.294-1.725,2.692-2.338,4.167c-0.25,0.595-0.466,1.199-0.656,1.812c-0.095,0.302-0.181,0.613-0.259,0.923
			c-0.164,0.63-0.293,1.26-0.388,1.907c-0.052,0.319-0.086,0.638-0.121,0.966c-0.078,0.811-0.138,1.441-0.224,1.924
			c-0.086,0.492-0.207,0.837-0.388,1.087c-0.052,0.06-0.104,0.121-0.155,0.164c-0.121,0.095-0.25,0.173-0.414,0.233
			c-0.397,0.147-0.966,0.181-1.786,0.181c-0.285,0-0.613,0-0.966-0.009c-1.751-0.035-3.563-0.009-5.254-0.406
			c-4.348-1.018-7.031-4.814-7.074-9.844c-0.026-2.2-0.026-4.409-0.026-6.609v-2.235c0-3.27,0.009-6.522,0.026-9.792
			c0-2.545,0.915-3.546,3.373-3.796c0.302-0.034,0.604-0.043,0.906-0.043c0,0,15.176,0.009,19.515,0.009
			c4.348,0,8.688-0.009,13.036-0.026c4.555-0.026,7.877-3.071,8.429-7.506c0.733-5.832-1.441-10.025-5.97-11.293
			c-1.208-0.336-2.519-0.406-3.787-0.406C86.903,97.163,76.8,97.18,66.689,97.163c-0.846,0-1.717-0.017-2.536-0.181
			c-0.345-0.06-0.656-0.173-0.915-0.311c-0.725-0.388-1.156-1.07-1.182-2.071c-0.009-0.423-0.017-0.845-0.009-1.277
			c0-3.227,0.483-3.727,3.667-3.727h20.533c6.833,0,13.666,0,20.507-0.009h6.082c4.762-0.009,8.144-2.243,9.016-6.281
			c0.017-0.086,0.034-0.164,0.052-0.25c0.371-1.95,0.362-4.072,0.026-6.048c-0.604-3.511-3.391-6.238-6.936-6.591
			c-0.742-0.078-1.484-0.095-2.217-0.095c-0.5,0-0.992,0.009-1.484,0.009H65.446c-0.966-0.009-1.682-0.121-2.209-0.388
			c-0.854-0.466-1.165-1.38-1.191-2.994c-0.026-2.191-0.026-4.383,0-6.574c0.052-5.245,2.674-8.602,7.808-9.74
			c0.811-0.181,1.631-0.328,2.467-0.44c1.216-0.173,2.45-0.259,3.675-0.267c15.495-0.026,30.99-0.035,46.476-0.035
			c13.364,0,26.728,0.009,40.092,0.017c6.436,0,9.68,2.856,10.085,8.912C172.659,58.96,172.659,59.098,172.659,59.228z"/>
	</g>
	<path class="st1" d="M112.31,85.365H56.449c-3.009,0-5.449-2.44-5.449-5.449v0c0-3.009,2.44-5.449,5.449-5.449h55.862
		c3.009,0,5.449,2.439,5.449,5.449v0C117.759,82.926,115.32,85.365,112.31,85.365z"/>
	<path class="st1" d="M96.77,112.277H40.908c-3.009,0-5.449-2.44-5.449-5.449v0c0-3.009,2.44-5.449,5.449-5.449H96.77
		c3.009,0,5.449,2.44,5.449,5.449v0C102.219,109.838,99.779,112.277,96.77,112.277z"/>
</g>
</svg>
